<?xml version="1.0" encoding="utf-8"?>
<!-- Generator: Adobe Illustrator 17.0.1, SVG Export Plug-In . SVG Version: 6.00 Build 0)  -->
<!DOCTYPE svg PUBLIC "-//W3C//DTD SVG 1.1//EN" "http://www.w3.org/Graphics/SVG/1.1/DTD/svg11.dtd">
<svg version="1.1" id="Слой_1" xmlns="http://www.w3.org/2000/svg" xmlns:xlink="http://www.w3.org/1999/xlink" x="0px" y="0px"
	 width="50px" height="50px" viewBox="-669.842 1166.048 50 50" enable-background="new -669.842 1166.048 50 50"
	 xml:space="preserve">
<path d="M-645.976,1213.867c0.209,0.419,0.68,0.733,1.151,0.733s0.942-0.262,1.151-0.733l12.299-24.598
	c0.994-1.989,1.518-4.134,1.57-6.437c0-0.105,0.052-0.209,0.052-0.314c0-8.269-6.751-15.02-15.073-15.02
	s-15.073,6.751-15.073,15.073c0,0.105,0,0.209,0.052,0.314c0.052,2.25,0.576,4.448,1.57,6.437L-645.976,1213.867z
	 M-644.825,1170.114c6.751,0,12.299,5.443,12.456,12.142c0,0.105-0.052,0.209-0.052,0.314c0,1.989-0.419,3.873-1.256,5.547
	l-11.147,22.242l-11.147-22.242c-0.837-1.727-1.308-3.559-1.256-5.547c0-0.105,0-0.209-0.052-0.314
	C-657.123,1175.557-651.576,1170.114-644.825,1170.114z"/>
<path d="M-644.825,1190.734c4.501,0,8.164-3.663,8.164-8.164s-3.663-8.164-8.164-8.164c-4.501,0-8.164,3.663-8.164,8.164
	S-649.325,1190.734-644.825,1190.734z M-644.825,1176.97c3.088,0,5.548,2.512,5.548,5.547c0,3.088-2.512,5.547-5.548,5.547
	c-3.035,0-5.547-2.512-5.547-5.547S-647.912,1176.97-644.825,1176.97z"/>
</svg>
