<?xml version="1.0" encoding="utf-8"?>
<!-- Generator: Adobe Illustrator 17.0.1, SVG Export Plug-In . SVG Version: 6.00 Build 0)  -->
<!DOCTYPE svg PUBLIC "-//W3C//DTD SVG 1.1//EN" "http://www.w3.org/Graphics/SVG/1.1/DTD/svg11.dtd">
<svg version="1.1" id="Layer_1" xmlns="http://www.w3.org/2000/svg" xmlns:xlink="http://www.w3.org/1999/xlink" x="0px" y="0px"
	 width="59.665px" height="157.449px" viewBox="0 0 59.665 157.449" enable-background="new 0 0 59.665 157.449"
	 xml:space="preserve">
<g id="button">
	<g id="but2">
	</g>
</g>
<g opacity="0.6">
	<path fill="#C1272D" d="M6.688,141.295c0,0,0.124,0.187,0.365,0.551c0.243,0.356,0.591,0.931,1.085,1.539
		c0.948,1.269,2.541,3.1,4.893,4.962c1.171,0.939,2.562,1.861,4.165,2.683c1.598,0.824,3.403,1.576,5.411,2.076
		c2.002,0.511,4.191,0.813,6.496,0.807l0.433,0.003l0.218,0.002c-0.022,0.001,0.125-0.001-0.034,0.002l0.058-0.005l0.116-0.009
		c0.311-0.022,0.623-0.044,0.937-0.066c0.618-0.053,1.29-0.067,1.885-0.154c1.146-0.22,2.306-0.359,3.523-0.756
		c1.225-0.284,2.398-0.815,3.606-1.289c0.58-0.295,1.165-0.592,1.756-0.892c0.594-0.291,1.131-0.699,1.706-1.044
		c2.241-1.481,4.344-3.339,6.118-5.567c3.546-4.436,5.598-10.472,5.409-16.523l-0.07-1.265c-0.022-0.425-0.038-0.862-0.116-1.194
		c-0.147-0.72-0.186-1.431-0.395-2.167c-0.369-1.481-0.86-2.931-1.572-4.282c-1.396-2.714-3.497-5.096-6.054-7.099
		c-5.149-4.003-11.848-6.546-18.476-8.675c-7.042-2.156-14.148-5.255-19.808-10.507c-2.81-2.611-5.146-5.843-6.568-9.434
		c-1.446-3.592-1.931-7.418-1.733-11.088c0.052-0.842,0.071-1.651,0.253-2.623c0.165-0.918,0.246-1.891,0.512-2.734
		c0.248-0.862,0.418-1.745,0.737-2.574c0.322-0.828,0.614-1.663,0.963-2.467c1.418-3.218,3.425-6.061,5.728-8.452
		c2.313-2.388,4.94-4.327,7.706-5.764c2.78-1.422,5.688-2.289,8.511-2.791c0.712-0.095,1.416-0.188,2.112-0.281
		c0.697-0.072,1.394-0.061,2.078-0.092c0.342-0.01,0.682-0.02,1.02-0.03l0.127-0.004l0.181,0.007l0.238,0.013l0.474,0.027
		c0.632,0.038,1.232,0.061,1.919,0.168c2.661,0.329,5.009,0.945,7.165,1.816c2.142,0.862,4.028,1.918,5.672,3.027
		c1.625,1.14,3.008,2.326,4.158,3.491c2.323,2.318,3.672,4.537,4.507,6.054c0.448,0.745,0.692,1.371,0.898,1.768
		c0.193,0.404,0.292,0.613,0.292,0.613l-1.383,0.662c0,0-0.109-0.19-0.319-0.558c-0.222-0.361-0.491-0.93-0.966-1.598
		c-0.875-1.374-2.324-3.309-4.567-5.34c-1.119-1.015-2.45-2.031-3.988-2.989c-1.556-0.926-3.318-1.787-5.287-2.455
		c-1.947-0.675-4.187-1.11-6.415-1.263c-0.533-0.066-1.18-0.051-1.807-0.063l-0.474-0.008l-0.238-0.004
		c-0.012,0-0.142-0.003-0.057,0l-0.112,0.008c-0.299,0.022-0.6,0.044-0.902,0.067c-0.603,0.055-1.218,0.063-1.829,0.153
		c-0.609,0.107-1.224,0.214-1.845,0.323c-2.458,0.545-4.958,1.399-7.316,2.728c-2.339,1.35-4.567,3.069-6.488,5.184
		c-1.916,2.111-3.56,4.587-4.679,7.354c-0.275,0.692-0.496,1.409-0.752,2.114c-0.25,0.709-0.374,1.459-0.575,2.189
		c-0.226,0.744-0.24,1.448-0.373,2.173c-0.141,0.673-0.155,1.546-0.189,2.388c-0.104,3.05,0.357,6.17,1.563,9.001
		c1.193,2.843,3.102,5.406,5.475,7.604c2.378,2.199,5.213,4.023,8.252,5.533c1.523,0.752,3.095,1.436,4.705,2.047
		c1.61,0.61,3.165,1.139,4.937,1.655c3.554,1.122,6.976,2.373,10.386,3.9c3.387,1.531,6.715,3.347,9.726,5.723
		c3.006,2.355,5.663,5.364,7.37,8.869c0.874,1.736,1.472,3.582,1.896,5.43c0.238,0.918,0.313,1.922,0.462,2.874
		c0.083,0.505,0.09,0.917,0.105,1.338l0.05,1.266c0.158,7.458-2.529,14.404-6.827,19.526c-4.31,5.102-10.001,8.451-15.634,9.71
		c-1.373,0.387-2.847,0.535-4.25,0.719c-0.685,0.067-1.294,0.053-1.933,0.083c-0.315,0.01-0.628,0.019-0.939,0.029l-0.326,0.003
		l-0.247-0.014l-0.491-0.029c-2.61-0.134-5.057-0.609-7.268-1.302c-2.217-0.683-4.181-1.626-5.899-2.633
		c-1.722-1.004-3.194-2.1-4.421-3.196c-2.49-2.175-3.996-4.268-4.967-5.757c-0.511-0.747-0.792-1.305-1.013-1.686
		c-0.214-0.38-0.325-0.575-0.325-0.575L6.688,141.295z"/>
	<g>
		<path fill="#C1272D" d="M1.276,0.247L1.276,0.247l27.527,28.998l1.048,1.101l1.046-1.101L58.662,0l0,0
			c0,0-24.239,23.082-28.83,23.082C24.779,23.082,1.276,0.247,1.276,0.247z"/>
		<path fill="#C1272D" d="M29.832,23.082C34.423,23.082,58.662,0,58.662,0l0,0L30.897,29.245l-1.046,1.101l0,0L29.832,23.082z"/>
	</g>
</g>
</svg>
